<svg xmlns="http://www.w3.org/2000/svg" viewBox="0 0 694.632 117.444"><defs><style>.cls-1{fill:#fff;}.cls-2{fill:#7f12df;}</style></defs><g id="Layer_2" data-name="Layer 2"><g id="Layer_1-2" data-name="Layer 1"><path class="cls-1" d="M175.42,34.841h19.833l28.039,73.4H204.143L197.532,91.6H173.027l-6.5,16.641H147.382Zm19.605,43.2-9.8-25.531L175.534,78.04Z"/><path class="cls-1" d="M238.735,108.472a46.531,46.531,0,0,1-9.346-2.28V92.173a45.9,45.9,0,0,0,9.062,2.565,52.1,52.1,0,0,0,9.517.968,34.67,34.67,0,0,0,7.351-.513,2.345,2.345,0,0,0,2-2.451,3.015,3.015,0,0,0-1.938-2.621,43.083,43.083,0,0,0-6.839-2.508l-4.9-1.594q-7.981-2.738-11.513-6.326t-3.532-10.087q0-16.527,25.075-16.527a67.8,67.8,0,0,1,9.916.74,50.619,50.619,0,0,1,8.434,1.881V69.492a31.424,31.424,0,0,0-7.124-2.109,42.1,42.1,0,0,0-7.579-.741,36.579,36.579,0,0,0-7.523.57q-2.508.57-2.507,2.394a2.445,2.445,0,0,0,1.595,2.336,54.326,54.326,0,0,0,6.155,2.107q2.28.575,4.673,1.369a42.14,42.14,0,0,1,9.917,4.159,13.068,13.068,0,0,1,5.015,5.3,17.862,17.862,0,0,1,1.481,7.75q0,8.207-6.439,12.482t-18.75,4.273A78.64,78.64,0,0,1,238.735,108.472Z"/><path class="cls-1" d="M291.416,104.37q-4.846-5.016-4.845-14.249v-22h-7.294v-13.9h7.294V42.934l18.351-4.9V54.218h13.107l-.8,13.905h-12.31V88.868q0,3.874,1.824,5.414t5.926,1.538a21.175,21.175,0,0,0,6.725-1.139v12.424a34.171,34.171,0,0,1-13.335,2.278Q296.256,109.383,291.416,104.37Z"/><path class="cls-1" d="M326.7,54.218h17.439l.57,5.015A46.723,46.723,0,0,1,353.6,55.3a44.78,44.78,0,0,1,10.372-2.223V66.87a76.922,76.922,0,0,0-10.258,1.995,45.615,45.615,0,0,0-8.662,3.02v36.359H326.7Z"/><path class="cls-1" d="M367.529,81.231q0-13.677,7.578-20.916t22.855-7.236q15.384,0,22.966,7.179t7.58,20.973q0,28.155-30.546,28.152Q367.527,109.383,367.529,81.231Zm39.55,10.6q2.738-3.191,2.736-10.6t-2.793-10.6q-2.795-3.189-9.06-3.191t-9.006,3.248q-2.735,3.249-2.736,10.543,0,7.41,2.736,10.6t9.006,3.191Q404.343,95.022,407.079,91.831Z"/><path class="cls-2" d="M444.51,48.974H422.967V34.841H484.4V48.974H462.859v59.27H444.51Z"/><path class="cls-2" d="M478.8,81.231q0-13.677,7.58-20.916t22.852-7.236q15.389,0,22.968,7.179t7.578,20.973q0,28.155-30.546,28.152Q478.806,109.383,478.8,81.231Zm39.552,10.6q2.733-3.191,2.735-10.6t-2.792-10.6q-2.794-3.189-9.063-3.191t-9,3.248Q497.5,73.937,497.5,81.231q0,7.41,2.735,10.6t9,3.191Q515.619,95.022,518.356,91.831Z"/><path class="cls-2" d="M545.56,81.231q0-13.677,7.578-20.916t22.854-7.236q15.386,0,22.966,7.179t7.581,20.973q0,28.155-30.547,28.152Q545.559,109.383,545.56,81.231Zm39.55,10.6q2.736-3.191,2.736-10.6t-2.793-10.6q-2.794-3.189-9.061-3.191t-9,3.248q-2.734,3.249-2.736,10.543,0,7.41,2.736,10.6t9,3.191Q582.374,95.022,585.11,91.831Z"/><path class="cls-2" d="M618.642,105.509q-3.878-3.874-3.877-12.425V31.422h18.352v59.84q0,2.623,1.025,3.589a4.7,4.7,0,0,0,3.307.969,17.257,17.257,0,0,0,5.471-.8v12.425a30.288,30.288,0,0,1-5.3,1.481,36.25,36.25,0,0,1-6.213.455Q622.517,109.383,618.642,105.509Z"/><path class="cls-2" d="M657.246,108.472a46.531,46.531,0,0,1-9.346-2.28V92.173a45.93,45.93,0,0,0,9.061,2.565,52.117,52.117,0,0,0,9.518.968,34.67,34.67,0,0,0,7.351-.513,2.345,2.345,0,0,0,2-2.451,3.017,3.017,0,0,0-1.938-2.621,43.1,43.1,0,0,0-6.838-2.508l-4.9-1.594q-7.98-2.738-11.511-6.326T647.1,69.606q0-16.527,25.075-16.527a67.753,67.753,0,0,1,9.915.74,50.526,50.526,0,0,1,8.434,1.881V69.492a31.39,31.39,0,0,0-7.122-2.109,42.132,42.132,0,0,0-7.58-.741,36.586,36.586,0,0,0-7.523.57q-2.508.57-2.508,2.394a2.445,2.445,0,0,0,1.6,2.336,54.213,54.213,0,0,0,6.154,2.107q2.279.575,4.674,1.369a42.2,42.2,0,0,1,9.917,4.159,13.062,13.062,0,0,1,5.013,5.3,17.846,17.846,0,0,1,1.483,7.75q0,8.207-6.439,12.482t-18.75,4.273A78.653,78.653,0,0,1,657.246,108.472Z"/><polygon class="cls-2" points="58.689 31.498 82.613 44.084 58.704 0 34.789 44.071 58.689 31.498"/><polygon class="cls-2" points="0 66.808 58.689 35.933 117.377 66.808 117.377 89.09 70.724 64.367 70.724 107.984 58.457 117.444 46.121 107.984 46.121 64.648 0 89.09 0 66.808"/><polygon class="cls-2" points="39.111 72.798 11.163 87.609 0 108.181 18.438 111.196 27.523 105.558 42.652 75.513 39.111 72.798"/><polygon class="cls-2" points="106.222 87.613 77.969 72.641 74.601 75.238 89.854 105.558 98.94 111.196 117.377 108.181 106.222 87.613"/></g></g></svg>